<?xml version="1.0" encoding="UTF-8" standalone="no"?>
<!-- Created with Inkscape (http://www.inkscape.org/) -->

<svg
   width="43.551624"
   height="42.374702"
   viewBox="0 0 43.551624 42.374702"
   version="1.1"
   id="svg1"
   xml:space="preserve"
   xmlns="http://www.w3.org/2000/svg"
   xmlns:svg="http://www.w3.org/2000/svg"><defs
     id="defs1" /><g
     id="layer1"
     style="display:none"
     transform="translate(-2.7025259,-2.9069428)"><path
       style="opacity:1;fill:#ffffff;stroke:#000000;stroke-width:1.33333;stroke-linejoin:round;stroke-dasharray:none"
       d="M 24.469932,5.4838591 C 21.907289,7.9429674 13.264374,13.090684 16.641164,25.041536 l -2.93371,5.027616 a 3.748648,3.748648 106.79321 0 0 -0.504608,1.672057 l -0.413578,7.125032 a 0.05057372,0.05057372 26.765219 0 0 0.08286,0.04179 l 5.382218,-4.48296 c 0.568692,-0.473675 1.629649,-0.866249 2.36974,-0.874797 2.046578,-0.02364 5.892074,-0.05751 7.591065,-0.0029 0.467355,0.01502 1.110768,0.347729 1.462465,0.658957 1.539813,1.362629 5.414737,4.617563 5.414737,4.617563 l -0.118107,-7.1063 A 2.2867327,2.2867327 73.441555 0 0 34.623593,30.53823 L 31.737228,25.948496 C 34.908703,12.964882 27.570119,8.3959302 24.469932,5.4838591 Z"
       id="path2"
       transform="matrix(1.3391263,0,0,1.3391263,-8.2654943,-5.6757518)" /><circle
       style="opacity:1;fill:#ffd42a;stroke:#000000;stroke-width:1.7855"
       id="path1"
       cx="24.155897"
       cy="14.380829"
       r="3.7211716" /><path
       style="opacity:1;fill:#ffffff;stroke:#000000;stroke-width:1.33333;stroke-linejoin:round;stroke-dasharray:none"
       d="m 17.968318,39.379876 c 0,0 -0.03688,4.297317 -0.261438,4.353457 -0.224561,0.05614 12.258446,0.0034 12.258446,0.0034 l -0.09866,-4.270072 v 0 z"
       id="path3" /></g><g
     id="layer4"
     style="display:none"
     transform="translate(-2.7025259,-2.9069428)"><path
       id="path4"
       style="opacity:1;fill:#ffffff;stroke:#000000;stroke-width:1.33333;stroke-linejoin:round;stroke-dasharray:none"
       d="M 23.976562,4.6835938 C 16.691046,4.8329821 13.916064,16.931811 13.814453,27.867188 c 0,0 -6.236328,6.145791 -6.236328,6.378906 0,0.336842 0.6191406,7.802734 0.6191406,7.802734 l 8.7578124,-3.591797 1.683594,2.69336 10.554687,0.167968 1.964844,-2.693359 8.869141,3.142578 0.33789,-7.859375 -5.988281,-6.121094 C 34.797586,15.567911 31.310032,4.9010982 23.976562,4.6835938 Z" /><ellipse
       style="opacity:1;fill:#ffffff;stroke:#000000;stroke-width:1.33333;stroke-linejoin:round;stroke-dasharray:none"
       id="path5"
       cx="24.084211"
       cy="17.880703"
       rx="4.8280702"
       ry="6.091228" /><path
       style="opacity:1;fill:#ffffff;stroke:#000000;stroke-width:1.33333;stroke-linejoin:round;stroke-dasharray:none"
       d="m 24.02807,28.014035 c 0,10.161404 0,10.161404 0,10.161404"
       id="path6" /></g><g
     id="layer5"
     transform="translate(-2.7025259,-2.9069428)"><path
       fill="#dbdbdb"
       d="m 3.0350719,13.761076 c -0.024943,-0.463349 0.044163,-0.93176 0.2073176,-1.405234 0.1631544,-0.473475 0.4071769,-0.904833 0.7320675,-1.294076 l 6.323264,-6.9390105 c 0.357903,-0.3600404 0.766987,-0.6453871 1.227252,-0.8560402 0.460266,-0.2106532 0.92552,-0.3286367 1.395763,-0.3539504 0.501593,-0.027001 0.984975,0.039916 1.450147,0.2007516 0.465171,0.1608357 0.878698,0.4019004 1.240581,0.7231939 l 6.288855,5.5630472 c 0.759285,0.6716544 1.174719,1.5322054 1.246303,2.5816524 0.07159,1.049447 -0.23339,1.948778 -0.914933,2.697994 l -2.226501,2.443313 1.38652,1.2265 2.226501,-2.443314 c 0.682793,-0.749283 1.541457,-1.15177 2.575991,-1.207461 1.034534,-0.05569 1.931443,0.252296 2.690728,0.923947 l 2.822557,2.4968 c 0.759285,0.671654 1.166796,1.525196 1.222534,2.560627 0.05574,1.03543 -0.257821,1.927169 -0.940682,2.675216 l -2.226501,2.443314 1.38652,1.226498 2.2265,-2.443313 c 0.682793,-0.749283 1.548981,-1.152175 2.598564,-1.208675 1.049581,-0.0565 1.954641,0.251043 2.71518,0.922629 l 6.288855,5.563048 c 0.396149,0.350429 0.700743,0.752254 0.913782,1.205477 0.213041,0.453223 0.332032,0.911509 0.356975,1.374858 0.02494,0.463349 -0.04456,0.924348 -0.208516,1.382995 -0.163953,0.458647 -0.424082,0.882818 -0.780389,1.272512 l -6.323263,6.93901 c -0.324891,0.389243 -0.710344,0.681373 -1.156361,0.87639 -0.446015,0.195016 -0.919225,0.305373 -1.41963,0.331071 -0.470243,0.02531 -0.945043,-0.03401 -1.424398,-0.177974 C 34.4573,42.918909 34.019516,42.671095 33.623301,42.31943 l -6.288856,-5.563045 c -0.759284,-0.671655 -1.166762,-1.52458 -1.222434,-2.558775 -0.05567,-1.034195 0.257854,-1.926551 0.940582,-2.67707 l 2.226501,-2.443313 -1.386518,-1.226498 -2.226502,2.443313 c -0.682794,0.749283 -1.550008,1.144795 -2.601642,1.186535 -1.051634,0.04174 -1.956499,-0.273868 -2.714596,-0.946824 l -2.773038,-2.452998 c -0.759285,-0.671654 -1.166763,-1.524578 -1.222435,-2.558773 -0.05567,-1.034195 0.257854,-1.926552 0.940583,-2.67707 l 2.226501,-2.443313 -1.386519,-1.226499 -2.226501,2.443313 c -0.682794,0.749283 -1.557532,1.1452 -2.624213,1.18775 -1.066682,0.04255 -1.979699,-0.272616 -2.73905,-0.945508 L 4.2563086,16.297608 C 3.8931727,15.976383 3.605484,15.596572 3.3932425,15.158175 3.181001,14.719779 3.0616108,14.254079 3.0350719,13.761076 M 6.7499902,13.561098 8.8297687,15.400845 15.153031,8.4618355 13.073253,6.6220876 Z m 4.2090758,3.723299 2.07978,1.839747 6.323262,-6.939009 -2.079779,-1.839748 z m 18.916085,16.732944 2.079778,1.839748 6.323263,-6.93901 -2.079779,-1.839748 z m 4.209076,3.7233 2.079779,1.839748 6.323263,-6.939011 -2.079779,-1.839748 z"
       id="path7"
       style="display:none;fill:#ffffff;fill-opacity:1;stroke-width:1.86984" /><g
       id="g8"
       transform="matrix(1.4611529,0,0,1.4611529,-0.36090228,1.1478699)"
       style="display:none;fill:#ffffff"><path
         fill="#000000"
         d="M 30,14 H 28 A 10.01,10.01 0 0 0 18,4 V 2 a 12.014,12.014 0 0 1 12,12"
         id="path1-3"
         style="fill:#ffffff" /><path
         fill="#000000"
         d="M 26,14 H 24 A 6.007,6.007 0 0 0 18,8 V 6 a 8.01,8.01 0 0 1 8,8 M 16,28 v -3.04 a 9.9,9.9 0 0 0 7.318,-2.208 1.85,1.85 0 0 0 0.678,-1.334 1.8,1.8 0 0 0 -0.524,-1.36 L 18.414,15 21,12.414 19.586,11 17,13.586 11.942,8.527 A 1.82,1.82 0 0 0 10.582,8.004 1.85,1.85 0 0 0 9.248,8.683 9.96,9.96 0 0 0 8.735,20.633 L 6.28,28 H 2 v 2 H 30 V 28 Z M 10.68,10.094 21.906,21.32 A 8.001,8.001 0 0 1 10.68,10.094 M 14,28 H 8.387 l 1.876,-5.627 A 10,10 0 0 0 14,24.543 Z"
         id="path2-1"
         style="fill:#ffffff" /></g><path
       fill="#dbdbdb"
       d="m 2.7025258,29.485555 3.7619423,-0.20251 q 0.2918287,5.421183 4.3266999,8.992146 4.03487,3.570964 9.538493,3.272839 l 0.199541,3.706792 Q 17.00238,45.444675 13.850314,44.290913 10.698246,43.137151 8.297486,41.011703 5.8967281,38.886255 4.3922715,35.92444 2.887814,32.962626 2.7025258,29.485555 m 7.5238842,-0.40502 3.761944,-0.20251 q 0.124713,2.316745 1.857861,3.849868 1.733149,1.533122 4.084364,1.406554 l 0.199541,3.706792 Q 16.227104,38.051343 13.329279,35.487961 10.431454,32.924579 10.22641,29.080535 M 3.0350719,13.761076 Q 2.9976579,13.066053 3.2423895,12.355842 3.4871211,11.64563 3.974457,11.061766 l 6.323264,-6.9390105 q 0.536854,-0.5400606 1.227252,-0.8560402 0.690399,-0.3159798 1.395763,-0.3539504 0.752389,-0.040502 1.450147,0.2007516 0.697757,0.2412536 1.240581,0.7231939 l 6.288855,5.5630472 q 1.138927,1.0074814 1.246303,2.5816524 0.107382,1.57417 -0.914933,2.697994 l -2.226501,2.443313 1.38652,1.2265 2.226501,-2.443314 q 1.02419,-1.123925 2.575991,-1.207461 1.551801,-0.08353 2.690728,0.923947 l 2.822557,2.4968 q 1.138927,1.007481 1.222534,2.560627 0.08361,1.553145 -0.940682,2.675216 l -2.226501,2.443314 1.38652,1.226498 2.2265,-2.443313 q 1.02419,-1.123925 2.598564,-1.208675 1.574372,-0.08475 2.71518,0.922629 l 6.288855,5.563048 q 0.594223,0.525643 0.913782,1.205477 0.319561,0.679835 0.356975,1.374858 0.03741,0.695024 -0.208516,1.382995 -0.245929,0.687971 -0.780389,1.272512 l -6.323263,6.93901 q -0.487336,0.583865 -1.156361,0.87639 -0.669023,0.292524 -1.41963,0.331071 -0.705365,0.03797 -1.424398,-0.177974 -0.719032,-0.215945 -1.313354,-0.743442 l -6.288856,-5.563045 q -1.138926,-1.007483 -1.222434,-2.558775 -0.08351,-1.551292 0.940582,-2.67707 l 2.226501,-2.443313 -1.386518,-1.226498 -2.226502,2.443313 q -1.024191,1.123925 -2.601642,1.186535 -1.577451,0.06261 -2.714596,-0.946824 l -2.773038,-2.452998 q -1.138927,-1.007481 -1.222435,-2.558773 -0.08351,-1.551293 0.940583,-2.67707 l 2.226501,-2.443313 -1.386519,-1.226499 -2.226501,2.443313 q -1.024191,1.123925 -2.624213,1.18775 -1.600023,0.06383 -2.73905,-0.945508 L 4.2563086,16.297608 Q 3.7116047,15.81577 3.3932425,15.158175 3.0748803,14.500581 3.0350719,13.761076 M 6.7499902,13.561098 8.8297687,15.400845 15.153031,8.4618355 13.073253,6.6220876 Z m 4.2090758,3.723299 2.07978,1.839747 6.323262,-6.939009 -2.079779,-1.839748 z m 18.916085,16.732944 2.079778,1.839748 6.323263,-6.93901 -2.079779,-1.839748 z m 4.209076,3.7233 2.079779,1.839748 6.323263,-6.939011 -2.079779,-1.839748 z"
       id="path1-2"
       style="display:inline;fill:#ffffff;fill-opacity:1;stroke-width:1.86984" /></g></svg>
